<svg width="141" height="153" viewBox="0 0 141 153" fill="none" xmlns="http://www.w3.org/2000/svg">
<path d="M55.4467 0.964615L33.2778 70.1314H53.6732L60.7672 44.4156L93.4453 44.4156L103.898 30.2275L65.201 30.2275L69.6347 16.9262H115.844L128.278 0.964615H55.4467Z" fill="#356CFF"/>
<path d="M127.423 80.852H100.821L60.6798 133.17L53.5858 80.852H33.4273L42.2948 147.359H64.4637L127.423 80.852Z" fill="#356CFF"/>
<path d="M55.4467 0.964615L33.2778 70.1314H53.6732L60.7672 44.4156L93.4453 44.4156L103.898 30.2275L65.201 30.2275L69.6347 16.9262H115.844L128.278 0.964615H55.4467Z" stroke="#356CFF" stroke-width="1.77351"/>
<path d="M127.423 80.852H100.821L60.6798 133.17L53.5858 80.852H33.4273L42.2948 147.359H64.4637L127.423 80.852Z" stroke="#356CFF" stroke-width="1.77351"/>
<path d="M127.297 80.9227H100.694L135.713 7.68411L66.1109 99.5445H87.393L64.3374 147.429L127.297 80.9227Z" fill="#FDC717" stroke="#FDC717" stroke-width="1.77351" stroke-miterlimit="16"/>
<path d="M22.6055 80.7725L31.473 147.279L36.7935 147.279L27.926 80.7725L22.6055 80.7725Z" fill="#356CFF" stroke="#356CFF" stroke-width="1.77351"/>
<path d="M11.9648 80.7725L20.8324 147.279L22.6059 147.279L13.7384 80.7725L11.9648 80.7725Z" fill="#356CFF" stroke="#356CFF" stroke-width="1.77351"/>
<path d="M1.32324 80.7725L10.1908 147.279L11.0775 147.279L2.21 80.7725L1.32324 80.7725Z" fill="#356CFF" stroke="#356CFF" stroke-width="0.886754"/>
<path d="M22.6055 70.1314L44.7743 0.964615H50.0949L27.926 70.1314H22.6055Z" fill="#356CFF" stroke="#356CFF" stroke-width="1.77351"/>
<path d="M11.9648 70.1314L34.1337 0.964615H35.9072L13.7384 70.1314H11.9648Z" fill="#356CFF" stroke="#356CFF" stroke-width="1.77351"/>
<path d="M1.32324 70.1315L23.4921 0.964645H24.3789L2.21 70.1315H1.32324Z" fill="#356CFF" stroke="#356CFF" stroke-width="0.886754"/>
</svg>
