<svg width="200" height="201" viewBox="0 0 200 201" fill="none" xmlns="http://www.w3.org/2000/svg">
<rect width="200" height="200" transform="translate(0 0.691925)" fill="black"/>
<path d="M89.2368 40.0858L70.8901 97.3273H87.769L93.64 76.0452L120.684 76.0453L129.334 64.3034L97.3093 64.3034L100.979 53.2954H139.22L149.511 40.0858H89.2368Z" fill="#356CFF"/>
<path d="M148.804 106.199H126.788L93.5676 149.498L87.6967 106.199H71.0138L78.3525 161.239H96.6991L148.804 106.199Z" fill="#356CFF"/>
<path d="M89.2368 40.0858L70.8901 97.3273H87.769L93.64 76.0452L120.684 76.0453L129.334 64.3034L97.3093 64.3034L100.979 53.2954H139.22L149.511 40.0858H89.2368Z" stroke="#356CFF" stroke-width="1.46773"/>
<path d="M148.804 106.199H126.788L93.5676 149.498L87.6967 106.199H71.0138L78.3525 161.239H96.6991L148.804 106.199Z" stroke="#356CFF" stroke-width="1.46773"/>
<path d="M148.699 106.258H126.683L155.664 45.6468L98.062 121.669H115.675L96.5942 161.298L148.699 106.258Z" fill="#FDC717" stroke="#FDC717" stroke-width="1.46773" stroke-miterlimit="16"/>
<path d="M62.0576 106.134L69.3963 161.174L73.7995 161.174L66.4608 106.134L62.0576 106.134Z" fill="#356CFF" stroke="#356CFF" stroke-width="1.46773"/>
<path d="M53.2515 106.134L60.5901 161.174L62.0579 161.174L54.7192 106.134L53.2515 106.134Z" fill="#356CFF" stroke="#356CFF" stroke-width="1.46773"/>
<path d="M44.4443 106.134L51.783 161.174L52.5169 161.174L45.1782 106.134L44.4443 106.134Z" fill="#356CFF" stroke="#356CFF" stroke-width="0.733866"/>
<path d="M62.0576 97.3273L80.4043 40.0858H84.8075L66.4608 97.3273H62.0576Z" fill="#356CFF" stroke="#356CFF" stroke-width="1.46773"/>
<path d="M53.2515 97.3273L71.5981 40.0858H73.0658L54.7192 97.3273H53.2515Z" fill="#356CFF" stroke="#356CFF" stroke-width="1.46773"/>
<path d="M44.4443 97.3274L62.791 40.0859H63.5248L45.1782 97.3274H44.4443Z" fill="#356CFF" stroke="#356CFF" stroke-width="0.733866"/>
</svg>
