<svg width="200" height="201" viewBox="0 0 200 201" fill="none" xmlns="http://www.w3.org/2000/svg">
<rect width="200" height="200" transform="translate(0 0.691925)" fill="black"/>
<path d="M86.4467 27.9646L64.2778 97.1314H84.6732L91.7672 71.4156L124.445 71.4156L134.898 57.2275L96.201 57.2275L100.635 43.9262H146.844L159.278 27.9646H86.4467Z" fill="#356CFF"/>
<path d="M158.423 107.852H131.821L91.6798 160.17L84.5858 107.852H64.4273L73.2948 174.359H95.4637L158.423 107.852Z" fill="#356CFF"/>
<path d="M86.4467 27.9646L64.2778 97.1314H84.6732L91.7672 71.4156L124.445 71.4156L134.898 57.2275L96.201 57.2275L100.635 43.9262H146.844L159.278 27.9646H86.4467Z" stroke="#356CFF" stroke-width="1.77351"/>
<path d="M158.423 107.852H131.821L91.6798 160.17L84.5858 107.852H64.4273L73.2948 174.359H95.4637L158.423 107.852Z" stroke="#356CFF" stroke-width="1.77351"/>
<path d="M158.297 107.923H131.694L166.713 34.6841L97.1109 126.545H118.393L95.3374 174.429L158.297 107.923Z" fill="#FDC717" stroke="#FDC717" stroke-width="1.77351" stroke-miterlimit="16"/>
<path d="M53.6055 107.773L62.473 174.279L67.7935 174.279L58.926 107.772L53.6055 107.773Z" fill="#356CFF" stroke="#356CFF" stroke-width="1.77351"/>
<path d="M42.9648 107.773L51.8324 174.279L53.6059 174.279L44.7384 107.772L42.9648 107.773Z" fill="#356CFF" stroke="#356CFF" stroke-width="1.77351"/>
<path d="M32.3232 107.772L41.1908 174.279L42.0775 174.279L33.21 107.772L32.3232 107.772Z" fill="#356CFF" stroke="#356CFF" stroke-width="0.886754"/>
<path d="M53.6055 97.1314L75.7743 27.9646H81.0949L58.926 97.1314H53.6055Z" fill="#356CFF" stroke="#356CFF" stroke-width="1.77351"/>
<path d="M42.9648 97.1314L65.1337 27.9646H66.9072L44.7384 97.1314H42.9648Z" fill="#356CFF" stroke="#356CFF" stroke-width="1.77351"/>
<path d="M32.3232 97.1315L54.4921 27.9646H55.3789L33.21 97.1315H32.3232Z" fill="#356CFF" stroke="#356CFF" stroke-width="0.886754"/>
</svg>
